  <svg version="1.0" xmlns="http://www.w3.org/2000/svg"  width="1800.000000pt" height="1800.000000pt" viewBox="0 0 1800.000000 1800.000000"  preserveAspectRatio="xMidYMid meet"> <g transform="translate(0.000000,1800.000000) scale(0.100000,-0.100000)" fill="#000000" stroke="none"> <path d="M3873 14641 c-180 -5 -203 -8 -222 -25 -25 -23 -61 -99 -61 -129 0 -20 -18 -88 -46 -177 -8 -25 -14 -54 -14 -65 0 -12 -4 -25 -9 -30 -5 -6 -14 -30 -19 -55 -20 -86 -34 -135 -44 -153 -5 -10 -13 -37 -18 -60 -13 -62 -32 -129 -41 -152 -5 -11 -13 -38 -18 -60 -6 -22 -17 -62 -25 -90 -9 -27 -21 -70 -27 -95 -6 -25 -15 -52 -19 -60 -4 -9 -11 -31 -14 -50 -4 -19 -13 -53 -21 -75 -12 -37 -19 -61 -62 -212 -9 -32 -22 -75 -29 -96 -8 -20 -14 -48 -14 -60 0 -13 -4 -27 -10 -33 -5 -5 -14 -30 -19 -54 -5 -25 -14 -58 -19 -75 -28 -82 -42 -132 -42 -146 0 -9 -7 -30 -15 -45 -8 -16 -15 -38 -15 -49 0 -10 -6 -37 -14 -60 -8 -22 -22 -67 -31 -100 -9 -33 -21 -73 -27 -90 -5 -16 -14 -46 -18 -65 -4 -19 -12 -48 -18 -65 -5 -16 -17 -57 -27 -90 -9 -33 -23 -80 -30 -105 -29 -104 -46 -163 -62 -217 -9 -32 -22 -78 -29 -103 -7 -25 -20 -72 -30 -105 -9 -33 -23 -77 -30 -98 -8 -20 -14 -48 -14 -62 0 -13 -4 -26 -9 -29 -5 -3 -12 -23 -15 -43 -4 -21 -13 -56 -20 -78 -8 -22 -21 -67 -30 -100 -9 -33 -23 -84 -31 -112 -9 -29 -23 -79 -32 -110 -9 -32 -22 -76 -28 -98 -7 -22 -21 -67 -30 -100 -9 -33 -23 -80 -30 -105 -7 -25 -20 -72 -30 -105 -9 -33 -21 -73 -27 -90 -5 -16 -14 -46 -18 -65 -19 -77 -34 -126 -46 -157 -8 -17 -14 -39 -14 -49 0 -10 -6 -36 -14 -59 -13 -38 -29 -92 -64 -215 -8 -30 -21 -72 -28 -93 -8 -20 -14 -48 -14 -60 0 -13 -4 -27 -10 -33 -5 -5 -14 -30 -19 -54 -16 -72 -33 -133 -47 -167 -8 -17 -14 -39 -14 -49 0 -10 -6 -36 -14 -59 -28 -82 -40 -121 -47 -155 -4 -19 -12 -48 -17 -65 -6 -16 -18 -57 -27 -90 -9 -33 -23 -80 -30 -105 -7 -25 -20 -72 -30 -105 -9 -33 -21 -73 -27 -90 -5 -16 -14 -46 -18 -65 -19 -77 -34 -126 -46 -157 -8 -17 -14 -42 -14 -55 0 -13 -4 -28 -10 -34 -5 -5 -14 -30 -19 -54 -11 -48 -30 -120 -57 -210 -16 -56 -33 -118 -55 -200 -7 -25 -18 -59 -25 -77 -8 -17 -14 -42 -14 -55 0 -13 -4 -28 -9 -34 -5 -5 -14 -29 -19 -54 -20 -82 -35 -135 -48 -167 -8 -17 -14 -39 -14 -48 0 -10 -7 -38 -14 -64 -8 -25 -23 -73 -32 -106 -9 -33 -23 -78 -29 -100 -7 -22 -21 -67 -30 -100 -9 -33 -23 -80 -31 -105 -8 -25 -14 -54 -14 -66 0 -11 -4 -24 -10 -30 -5 -5 -14 -30 -19 -54 -16 -73 -33 -134 -43 -153 -5 -10 -13 -37 -18 -60 -15 -71 -32 -131 -42 -150 -5 -10 -13 -37 -18 -60 -15 -71 -32 -131 -42 -150 -5 -10 -13 -37 -18 -60 -13 -62 -32 -129 -41 -152 -5 -11 -13 -38 -18 -60 -17 -67 -39 -148 -49 -180 -5 -16 -17 -57 -27 -90 -9 -33 -23 -80 -30 -105 -7 -25 -20 -72 -30 -105 -9 -33 -23 -80 -30 -105 -7 -25 -20 -72 -30 -105 -9 -33 -23 -80 -31 -105 -8 -25 -14 -55 -14 -67 0 -12 -4 -24 -9 -27 -5 -3 -12 -18 -15 -33 -4 -16 -13 -41 -20 -58 -31 -68 -46 -106 -46 -116 0 -6 -7 -17 -15 -25 -8 -8 -12 -21 -8 -29 4 -12 18 -14 67 -9 33 3 414 9 846 13 l785 6 6 75 c3 41 9 82 12 90 4 8 11 42 16 75 9 55 21 123 51 295 6 36 15 79 20 95 5 17 12 57 16 90 3 33 12 89 19 125 8 36 21 106 30 155 9 50 21 112 27 139 6 26 14 74 19 105 11 73 27 160 45 242 8 37 14 81 14 99 0 17 5 40 10 50 6 11 13 47 16 82 3 35 10 74 15 89 5 14 14 56 19 95 5 38 16 105 24 149 8 44 19 109 26 145 15 87 36 200 51 280 7 36 15 88 20 115 10 71 28 170 45 246 8 37 14 80 14 95 0 16 7 51 15 78 8 27 15 66 15 86 0 20 4 50 10 66 5 16 14 61 19 99 12 83 27 165 47 256 8 37 14 83 14 104 0 20 5 45 11 56 6 11 14 50 19 87 9 78 25 170 46 263 8 37 14 80 14 95 0 16 7 51 15 78 8 27 15 66 15 86 0 20 5 50 10 66 6 16 14 58 19 94 16 112 39 244 46 261 3 9 10 47 15 85 5 38 16 105 24 149 19 103 42 231 56 320 7 39 18 98 26 132 8 34 14 78 14 98 0 20 4 45 10 55 5 10 14 52 19 92 6 40 14 96 20 123 5 28 17 95 26 150 9 55 23 128 31 162 7 34 14 76 14 95 0 18 7 55 15 82 8 27 15 63 15 80 0 17 6 60 14 96 17 76 36 174 47 245 23 157 32 205 45 256 8 30 14 71 14 90 0 19 7 56 15 83 8 27 15 66 15 86 0 20 5 50 10 66 6 16 14 58 19 94 11 78 28 177 43 243 5 26 14 76 18 110 11 76 27 162 46 244 8 34 14 75 14 92 0 16 7 56 15 88 8 31 15 72 15 91 0 20 4 32 11 30 13 -4 49 -111 49 -146 0 -13 5 -32 11 -43 6 -11 14 -41 18 -67 8 -47 22 -104 46 -197 19 -72 36 -144 46 -190 4 -22 13 -60 19 -85 7 -25 18 -70 25 -100 7 -30 18 -75 25 -100 6 -25 15 -63 19 -85 4 -22 12 -56 19 -75 11 -36 27 -104 41 -175 4 -22 13 -60 20 -85 7 -25 18 -70 26 -100 7 -30 19 -77 25 -105 7 -27 16 -66 20 -85 4 -19 13 -57 20 -85 6 -27 18 -76 26 -107 8 -32 20 -84 28 -115 8 -32 19 -78 26 -103 6 -25 15 -63 19 -85 10 -46 27 -118 46 -190 23 -89 37 -149 45 -190 4 -22 12 -60 19 -85 7 -25 19 -72 27 -105 9 -33 22 -83 30 -111 8 -28 14 -59 14 -69 0 -10 6 -41 14 -69 20 -72 42 -158 62 -246 9 -41 23 -96 30 -122 8 -26 14 -55 14 -64 0 -9 6 -40 14 -68 23 -80 44 -165 92 -376 16 -66 31 -128 58 -235 8 -33 22 -91 31 -130 9 -38 22 -95 30 -125 8 -30 28 -113 45 -185 17 -71 37 -155 45 -185 8 -30 21 -89 31 -130 9 -41 22 -97 30 -125 7 -27 20 -84 30 -125 9 -41 22 -97 30 -125 7 -27 20 -84 30 -125 9 -41 22 -97 30 -125 7 -27 22 -90 34 -140 11 -49 24 -106 29 -125 12 -47 30 -122 47 -195 8 -33 21 -87 30 -120 8 -33 19 -84 25 -114 5 -30 12 -58 16 -63 3 -6 12 -37 19 -71 29 -124 43 -183 57 -242 8 -33 23 -91 32 -130 9 -38 23 -97 31 -130 8 -33 19 -78 23 -100 8 -38 17 -76 46 -190 7 -27 18 -72 24 -100 7 -27 18 -77 27 -110 8 -33 19 -78 23 -100 8 -40 22 -97 47 -190 7 -27 27 -111 45 -185 17 -74 37 -157 44 -185 23 -89 37 -149 42 -190 3 -21 15 -52 26 -68 l21 -28 538 2 c537 1 537 1 563 23 18 16 25 31 25 59 0 21 5 47 11 58 6 11 14 41 19 67 5 26 17 76 26 112 8 36 22 91 29 123 7 32 16 66 20 75 4 9 11 37 15 62 5 25 16 72 24 105 9 33 20 83 27 110 6 28 17 73 24 100 29 114 38 152 46 190 8 37 19 86 49 210 7 28 18 72 26 99 8 26 14 59 14 73 0 13 4 32 10 42 5 10 14 43 19 72 10 58 58 249 63 254 2 2 439 7 973 10 533 4 994 9 1025 10 161 6 2705 4 2711 -2 9 -9 -25 -206 -47 -273 -8 -25 -14 -58 -14 -73 0 -16 -5 -37 -11 -48 -6 -11 -14 -41 -19 -67 -8 -45 -15 -74 -45 -187 -28 -105 -37 -141 -45 -185 -8 -43 -13 -64 -45 -185 -18 -68 -36 -142 -46 -190 -25 -123 -33 -153 -45 -188 -8 -20 -14 -50 -14 -66 0 -16 -7 -45 -15 -64 -8 -20 -15 -49 -15 -65 0 -16 -7 -47 -16 -68 -19 -44 -13 -112 10 -129 8 -6 34 -10 58 -9 24 1 291 2 595 3 l551 1 12 36 c13 38 37 141 50 214 12 64 29 137 46 194 8 26 14 61 14 76 0 16 5 41 11 57 6 15 15 51 19 78 5 28 13 68 18 90 6 22 18 76 27 120 9 44 21 95 27 113 5 19 14 57 19 85 4 29 15 81 22 117 8 36 20 90 27 120 6 30 16 70 22 88 5 19 14 57 19 85 4 29 15 81 22 117 8 36 20 90 27 120 6 30 18 78 26 106 8 28 14 62 14 77 0 14 5 38 11 54 6 15 15 51 19 78 5 28 13 68 18 90 6 22 18 76 27 120 9 44 21 94 26 110 5 17 12 53 15 80 4 28 11 58 15 67 5 9 13 43 18 75 5 32 14 76 19 98 6 22 18 76 27 120 9 44 21 95 27 113 5 19 14 57 18 85 5 29 13 70 18 92 6 22 18 76 27 120 9 44 23 102 31 129 8 26 14 65 14 85 0 20 4 41 10 47 5 5 14 37 19 69 14 84 31 164 42 202 6 18 14 54 18 80 8 46 15 77 42 188 6 28 15 70 20 95 4 25 12 65 18 90 17 66 39 171 45 205 2 17 9 48 14 70 6 22 18 76 27 120 9 44 23 103 31 131 8 28 14 63 14 78 0 15 5 36 10 46 6 10 14 45 20 77 9 55 24 129 48 233 6 25 18 81 27 125 9 44 21 96 26 115 6 19 14 58 19 85 17 94 32 160 46 209 8 26 14 62 14 78 0 16 4 37 10 47 5 10 13 43 18 72 9 50 14 73 43 197 7 26 16 67 20 92 11 60 35 176 48 225 5 22 17 76 26 120 9 44 22 98 28 120 5 22 14 60 18 85 14 78 30 154 41 188 5 19 14 57 18 85 5 29 13 72 19 97 7 25 19 77 27 115 9 39 21 97 29 130 33 147 44 202 49 230 7 43 25 122 42 179 8 26 14 62 14 78 0 16 5 38 10 48 6 10 14 45 20 77 13 82 30 163 41 200 6 18 14 54 19 80 5 27 16 83 25 126 8 43 17 83 21 88 3 6 10 34 14 62 9 49 25 127 48 227 6 25 18 81 27 125 9 44 23 102 31 129 8 26 14 62 14 78 0 16 5 38 10 48 6 10 14 45 20 77 5 32 16 90 24 128 9 39 21 95 27 125 6 30 15 63 21 73 6 13 5 25 -4 38 -13 19 -28 20 -547 20 -428 0 -537 -3 -548 -13 -7 -7 -17 -40 -23 -73 -18 -111 -37 -202 -44 -214 -5 -7 -12 -36 -16 -64 -11 -64 -27 -137 -46 -201 -8 -26 -14 -62 -14 -78 0 -16 -5 -38 -11 -49 -6 -11 -14 -41 -19 -67 -27 -136 -58 -274 -76 -336 -8 -26 -14 -57 -14 -68 0 -11 -6 -43 -14 -71 -7 -29 -21 -88 -31 -132 -9 -44 -23 -102 -31 -129 -8 -26 -14 -56 -14 -65 0 -17 -26 -137 -42 -188 -5 -18 -13 -54 -18 -80 -13 -70 -30 -143 -42 -181 -5 -19 -14 -57 -18 -85 -11 -63 -28 -141 -41 -184 -6 -18 -14 -54 -19 -80 -8 -45 -15 -74 -42 -183 -6 -25 -14 -65 -19 -90 -10 -60 -28 -138 -40 -177 -6 -18 -14 -54 -19 -80 -13 -69 -30 -141 -46 -197 -8 -26 -14 -62 -14 -78 0 -16 -5 -39 -11 -50 -6 -11 -15 -44 -19 -72 -11 -64 -27 -136 -46 -200 -8 -26 -14 -62 -14 -78 0 -16 -5 -39 -11 -50 -6 -11 -15 -44 -19 -72 -11 -66 -28 -142 -42 -186 -7 -19 -15 -55 -20 -80 -18 -104 -33 -176 -40 -186 -4 -6 -10 -31 -13 -55 -3 -24 -12 -66 -19 -94 -8 -27 -21 -86 -31 -130 -9 -44 -21 -95 -26 -112 -6 -18 -14 -54 -19 -80 -13 -70 -30 -143 -42 -181 -5 -19 -14 -57 -18 -85 -11 -67 -28 -143 -42 -187 -7 -19 -15 -55 -19 -80 -10 -58 -27 -132 -45 -196 -8 -28 -14 -62 -14 -76 0 -14 -7 -42 -15 -61 -8 -20 -15 -48 -15 -63 0 -14 -7 -47 -15 -73 -8 -25 -21 -82 -30 -126 -9 -44 -21 -95 -26 -112 -6 -18 -14 -54 -19 -80 -20 -103 -33 -160 -46 -196 -8 -20 -14 -51 -14 -67 0 -16 -5 -41 -11 -57 -6 -15 -15 -50 -20 -78 -5 -27 -18 -81 -29 -120 -11 -38 -23 -85 -27 -103 -3 -18 -9 -35 -14 -37 -10 -7 -1906 -4 -2869 4 l-745 6 1 40 c1 22 7 60 14 85 7 25 19 70 26 100 8 30 19 70 25 87 6 18 14 54 19 80 5 27 16 75 24 108 8 33 20 80 26 105 7 25 17 61 23 80 6 19 14 53 18 75 5 22 15 67 23 100 9 33 22 87 30 120 43 177 68 274 78 305 6 19 15 53 19 75 5 22 15 67 23 100 9 33 22 87 30 120 9 33 20 80 27 105 6 25 18 72 26 105 8 33 19 76 25 95 7 19 15 53 19 75 14 71 37 159 48 188 6 16 11 43 11 61 0 17 4 36 9 42 5 5 14 32 20 59 14 69 36 161 50 215 33 121 40 149 52 195 6 28 14 66 17 85 2 19 9 40 14 47 5 6 13 33 18 60 16 81 37 171 45 183 4 6 11 35 15 63 5 29 14 72 20 97 17 65 40 150 51 186 5 16 13 50 18 75 28 126 38 167 75 300 9 31 16 67 16 82 0 14 4 28 9 31 5 4 12 25 15 49 4 23 13 65 21 92 7 28 21 75 29 106 9 31 16 66 16 78 0 12 5 31 11 42 6 11 14 41 19 67 15 75 37 165 49 195 6 16 11 40 11 54 0 14 7 48 16 77 9 28 22 71 30 96 8 25 14 55 14 66 0 12 7 38 15 57 8 20 15 48 15 63 0 14 7 47 15 73 8 25 21 71 28 101 8 30 20 78 27 105 7 28 15 66 18 85 2 19 8 40 12 45 5 6 11 33 15 60 4 28 12 58 17 68 5 10 13 39 18 65 5 26 16 74 24 107 9 33 22 87 30 120 23 100 36 151 76 310 7 28 16 68 21 90 4 22 12 60 18 85 42 167 51 230 40 252 -9 16 -29 18 -217 18 -114 0 -286 5 -382 10 -96 5 -395 12 -665 16 -269 3 -557 9 -640 13 -184 10 -193 7 -212 -69 -8 -30 -21 -77 -29 -104 -8 -26 -14 -57 -14 -68 0 -11 -5 -28 -10 -39 -6 -10 -15 -38 -20 -61 -15 -75 -37 -159 -74 -287 -9 -29 -16 -61 -16 -71 0 -10 -7 -34 -15 -53 -8 -20 -15 -49 -15 -65 0 -15 -5 -33 -10 -38 -6 -6 -15 -33 -20 -60 -13 -74 -36 -166 -49 -197 -6 -16 -11 -41 -11 -56 0 -15 -4 -31 -9 -37 -5 -5 -14 -31 -20 -59 -13 -63 -45 -191 -72 -281 -5 -16 -13 -50 -18 -75 -16 -74 -53 -212 -77 -289 -8 -25 -14 -53 -14 -64 0 -10 -7 -39 -15 -65 -8 -25 -21 -75 -30 -111 -9 -36 -20 -79 -26 -96 -5 -16 -13 -50 -18 -75 -15 -66 -45 -184 -75 -288 -9 -29 -16 -61 -16 -71 0 -10 -7 -34 -15 -53 -8 -20 -15 -50 -15 -66 0 -16 -4 -32 -9 -36 -6 -3 -13 -27 -16 -53 -4 -26 -13 -61 -21 -79 -8 -17 -14 -42 -14 -56 0 -13 -7 -41 -15 -60 -8 -20 -15 -49 -15 -65 0 -15 -4 -32 -9 -38 -5 -5 -14 -31 -20 -59 -13 -65 -29 -129 -47 -185 -8 -25 -14 -55 -14 -68 0 -13 -5 -32 -10 -43 -6 -10 -15 -38 -20 -61 -9 -41 -26 -109 -51 -208 -19 -75 -40 -152 -55 -200 -8 -25 -14 -55 -14 -66 0 -12 -7 -38 -15 -57 -8 -20 -15 -49 -15 -65 0 -15 -4 -32 -9 -37 -5 -6 -14 -32 -20 -60 -6 -27 -17 -77 -25 -110 -8 -33 -20 -80 -26 -105 -13 -53 -37 -141 -53 -190 -6 -19 -14 -53 -18 -75 -16 -78 -34 -150 -42 -162 -4 -6 -10 -33 -14 -59 -3 -26 -12 -59 -20 -74 -7 -14 -13 -36 -13 -49 0 -13 -7 -46 -16 -75 -28 -90 -35 -115 -44 -163 -10 -56 -29 -130 -41 -158 -4 -11 -13 -42 -19 -70 -6 -27 -18 -77 -27 -110 -8 -33 -21 -85 -28 -117 -7 -31 -16 -61 -19 -66 -4 -6 -11 -30 -16 -54 -21 -95 -75 -305 -101 -394 -5 -16 -13 -50 -18 -75 -12 -53 -28 -116 -47 -183 -8 -26 -14 -57 -14 -67 0 -11 -6 -19 -13 -19 -15 0 -47 61 -47 88 0 10 -7 27 -15 38 -8 10 -15 27 -15 36 0 10 -6 32 -14 50 -13 31 -23 57 -60 156 -59 157 -74 199 -79 217 -3 11 -15 45 -27 75 -12 30 -25 66 -30 80 -5 14 -18 50 -30 80 -47 122 -52 136 -57 160 -3 14 -12 34 -19 45 -8 11 -14 29 -14 40 0 12 -5 26 -11 32 -6 6 -14 26 -19 44 -5 19 -18 59 -30 89 -12 30 -25 66 -30 80 -5 14 -18 50 -30 80 -41 106 -51 135 -62 170 -5 19 -14 39 -19 45 -5 5 -9 18 -9 30 0 11 -6 29 -14 40 -7 11 -16 31 -19 45 -3 14 -15 50 -27 80 -12 30 -25 66 -30 80 -5 14 -18 50 -30 80 -12 30 -26 71 -32 90 -5 19 -14 39 -19 45 -5 5 -9 17 -9 27 0 16 -7 34 -45 123 -7 17 -15 39 -18 50 -3 11 -15 45 -27 75 -12 30 -25 66 -30 80 -5 14 -18 50 -30 80 -11 30 -32 87 -45 125 -13 39 -33 95 -45 125 -12 30 -25 66 -30 80 -5 14 -18 50 -30 80 -44 115 -52 136 -60 169 -5 18 -13 38 -19 44 -6 6 -11 20 -11 32 0 11 -6 29 -14 40 -7 11 -16 31 -19 45 -3 14 -15 50 -27 80 -12 30 -25 66 -30 80 -5 14 -18 50 -30 80 -44 115 -52 136 -60 168 -4 18 -12 38 -18 45 -5 7 -12 23 -15 37 -3 14 -15 50 -26 80 -28 70 -50 128 -61 160 -5 14 -18 50 -30 80 -12 30 -25 66 -30 80 -5 14 -18 50 -30 80 -12 30 -26 71 -32 90 -5 19 -14 40 -18 45 -4 6 -10 21 -13 35 -3 14 -15 50 -26 80 -28 70 -50 128 -61 160 -5 14 -18 50 -30 80 -11 30 -32 87 -45 125 -13 39 -33 95 -45 125 -12 30 -25 66 -30 80 -5 14 -18 50 -30 80 -47 122 -52 136 -57 160 -3 14 -9 30 -14 35 -4 6 -19 44 -33 85 -13 41 -34 100 -46 130 -12 30 -25 66 -30 80 -5 14 -18 50 -30 80 -32 83 -48 128 -75 205 -13 39 -33 95 -45 125 -12 30 -25 66 -30 80 -5 14 -18 50 -30 80 -12 30 -26 71 -32 90 -5 19 -13 40 -18 45 -4 6 -10 19 -13 30 -3 11 -15 45 -27 75 -37 97 -60 169 -60 189 0 11 -10 27 -22 35 -24 17 -19 17 -385 7z m346 -75 c11 -13 37 -77 61 -146 5 -14 18 -50 30 -80 12 -30 25 -70 30 -89 5 -18 13 -38 19 -44 6 -6 11 -20 11 -32 0 -11 6 -29 14 -40 7 -11 16 -31 19 -45 5 -24 10 -38 57 -160 12 -30 25 -66 30 -80 5 -14 18 -50 30 -80 12 -30 25 -70 30 -88 4 -18 12 -38 18 -45 5 -7 12 -23 15 -37 3 -14 15 -50 27 -80 12 -30 25 -66 30 -80 5 -14 18 -50 30 -80 35 -91 50 -132 75 -205 13 -38 34 -95 45 -125 12 -30 25 -66 30 -80 10 -29 30 -82 60 -160 12 -30 25 -66 30 -80 5 -14 18 -50 30 -80 11 -30 32 -86 45 -125 13 -38 33 -95 45 -125 12 -30 25 -66 30 -80 5 -14 18 -50 30 -80 47 -122 52 -136 57 -160 3 -14 12 -34 19 -45 8 -11 14 -26 14 -33 0 -8 6 -28 14 -45 8 -18 16 -41 19 -52 6 -20 17 -51 57 -155 12 -30 26 -71 32 -90 5 -19 14 -39 19 -44 5 -6 9 -17 9 -25 0 -9 7 -29 15 -45 8 -15 15 -33 15 -38 0 -6 6 -24 14 -41 8 -18 24 -61 37 -97 24 -70 36 -104 69 -190 12 -30 26 -68 31 -85 5 -16 13 -39 17 -50 5 -11 15 -36 21 -55 18 -50 57 -156 81 -220 26 -68 68 -182 86 -235 8 -22 19 -49 23 -60 5 -11 14 -33 19 -50 6 -16 24 -68 42 -115 17 -47 35 -96 40 -110 5 -14 18 -50 30 -80 12 -30 25 -66 30 -80 5 -14 18 -50 30 -80 11 -30 33 -89 47 -130 14 -41 29 -79 33 -85 4 -5 10 -21 13 -35 3 -14 15 -50 27 -80 12 -30 25 -66 30 -80 5 -14 15 -43 23 -65 8 -21 13 -45 10 -51 -3 -7 -30 -32 -61 -56 -32 -23 -66 -51 -77 -61 -11 -10 -32 -25 -47 -33 -16 -8 -28 -19 -28 -24 0 -6 -6 -10 -14 -10 -8 0 -16 -4 -18 -9 -1 -5 -45 -41 -96 -79 l-93 -70 -302 5 c-217 4 -306 9 -315 18 -7 6 -24 59 -38 116 -14 57 -31 129 -39 159 -35 140 -66 268 -75 310 -4 19 -13 58 -20 85 -6 28 -18 76 -26 108 -8 31 -20 83 -28 115 -8 31 -22 89 -31 127 -9 39 -22 95 -30 125 -8 30 -21 89 -31 130 -9 41 -23 95 -30 119 -8 25 -14 53 -14 64 0 11 -7 43 -15 71 -8 28 -28 110 -45 181 -17 72 -37 155 -45 185 -8 30 -28 112 -44 183 -17 70 -44 182 -60 250 -51 211 -89 368 -121 502 -52 221 -90 378 -105 435 -14 55 -30 124 -80 335 -14 61 -32 135 -40 165 -8 30 -28 116 -46 190 -17 74 -37 158 -44 185 -8 28 -23 93 -35 145 -12 52 -26 109 -31 125 -4 17 -22 89 -39 160 -17 72 -37 155 -45 185 -8 30 -26 102 -40 160 -50 203 -77 306 -111 429 -28 99 -33 126 -22 132 7 5 117 9 244 9 188 0 234 -3 243 -14z m5561 -6 c80 -5 273 -13 430 -16 157 -3 289 -9 293 -14 5 -4 3 -27 -3 -51 -12 -46 -29 -107 -54 -199 -8 -30 -22 -84 -31 -120 -17 -68 -41 -154 -56 -206 -5 -16 -13 -50 -19 -75 -13 -62 -50 -209 -75 -304 -8 -27 -21 -78 -29 -112 -29 -115 -68 -266 -85 -333 -7 -25 -16 -63 -21 -85 -5 -22 -16 -67 -24 -100 -8 -33 -20 -80 -26 -105 -7 -25 -17 -61 -23 -80 -6 -19 -14 -53 -18 -75 -9 -47 -26 -116 -42 -165 -6 -19 -14 -53 -18 -75 -10 -51 -27 -117 -45 -175 -8 -25 -14 -55 -14 -66 0 -12 -7 -38 -15 -57 -8 -20 -15 -50 -15 -66 0 -16 -4 -32 -9 -35 -5 -4 -12 -25 -15 -49 -4 -23 -13 -64 -21 -92 -7 -27 -21 -79 -30 -115 -9 -36 -20 -79 -26 -96 -5 -16 -13 -50 -19 -75 -27 -125 -47 -204 -76 -303 -8 -26 -14 -57 -14 -68 0 -11 -5 -28 -11 -39 -6 -11 -14 -41 -19 -67 -12 -61 -51 -217 -76 -306 -8 -26 -14 -57 -14 -68 0 -11 -5 -28 -11 -39 -6 -11 -14 -41 -19 -67 -12 -61 -51 -217 -76 -306 -8 -26 -14 -57 -14 -68 0 -11 -5 -28 -11 -39 -6 -11 -14 -41 -19 -67 -5 -26 -16 -74 -24 -107 -8 -33 -20 -80 -26 -105 -7 -25 -17 -61 -23 -80 -6 -19 -14 -53 -18 -75 -9 -47 -26 -116 -42 -165 -6 -19 -14 -53 -18 -75 -9 -47 -26 -116 -42 -165 -6 -19 -14 -53 -18 -75 -10 -51 -27 -117 -45 -175 -8 -25 -14 -55 -14 -68 0 -13 -5 -32 -11 -43 -6 -11 -14 -41 -19 -67 -5 -26 -16 -74 -24 -107 -8 -33 -20 -80 -26 -105 -7 -25 -17 -61 -23 -80 -6 -19 -14 -53 -18 -75 -10 -51 -27 -117 -45 -175 -8 -25 -14 -55 -14 -68 0 -13 -5 -32 -11 -43 -6 -11 -14 -41 -19 -67 -17 -86 -39 -174 -50 -203 -18 -41 -6 -79 25 -79 13 0 27 5 31 11 3 6 17 8 30 5 33 -9 1370 -25 2289 -28 1210 -5 1295 -6 1302 -24 3 -9 -1 -39 -10 -67 -33 -109 -47 -160 -47 -174 0 -9 -7 -36 -14 -62 -8 -25 -22 -73 -31 -106 -9 -33 -23 -80 -31 -105 -8 -25 -14 -53 -14 -64 0 -10 -7 -39 -14 -65 -8 -25 -22 -71 -30 -101 -8 -30 -22 -79 -30 -109 -9 -29 -16 -61 -16 -70 0 -9 -9 -34 -19 -57 l-19 -41 -1903 -6 c-1047 -4 -2105 -10 -2351 -14 -398 -5 -448 -4 -453 9 -6 15 -1 46 29 178 8 36 20 88 26 115 6 28 16 65 21 82 6 18 14 54 19 80 5 27 16 77 25 113 9 36 22 92 29 126 7 34 16 66 19 71 3 5 11 34 16 64 5 30 16 81 25 114 14 60 32 134 60 255 24 105 46 201 61 260 23 95 46 193 61 260 17 72 36 154 58 245 31 129 47 202 56 245 5 25 14 61 19 80 15 51 41 158 51 210 5 25 17 74 25 110 16 61 29 116 55 235 7 28 18 73 25 100 7 28 20 84 29 125 10 41 21 91 27 110 5 19 18 76 29 125 12 50 34 144 50 210 16 66 36 152 45 190 23 103 45 195 56 235 5 19 14 55 19 80 5 25 17 74 26 110 8 36 21 92 29 125 7 33 15 67 18 75 3 8 15 60 27 115 12 55 26 111 31 125 5 14 14 48 19 75 10 52 28 134 55 245 8 36 22 94 30 130 9 36 22 94 31 130 32 133 54 229 90 380 8 36 19 87 24 115 5 27 14 61 19 75 6 14 15 48 20 75 9 48 26 120 58 250 8 33 21 87 28 120 8 33 21 89 30 125 9 36 22 92 30 125 8 33 21 89 30 125 8 36 22 92 30 125 7 33 21 89 30 125 9 36 23 92 30 125 8 33 21 87 29 120 8 33 22 92 31 130 9 39 23 97 31 130 9 33 22 87 29 120 35 147 44 182 55 213 l12 32 126 0 c70 0 192 -5 272 -10z m-3635 -5232 c-6 -15 -55 -57 -184 -156 -30 -23 -58 -46 -61 -50 -14 -21 -79 -62 -97 -62 -14 0 -25 -11 -33 -31 -8 -18 -26 -37 -43 -44 -29 -12 -77 -9 -77 5 0 16 30 38 65 50 19 6 41 22 48 35 6 12 40 44 73 71 239 190 287 224 302 210 7 -7 10 -20 7 -28z m38 -80 c32 -69 73 -185 66 -192 -10 -10 -343 -9 -347 2 -2 6 12 24 30 41 69 63 213 180 224 180 6 1 18 -14 27 -31z m-564 -204 c3 -3 -7 -16 -21 -31 l-26 -26 -237 2 c-130 1 -242 4 -250 7 -18 7 -27 34 -16 48 7 8 88 10 278 8 147 -2 270 -6 272 -8z m473 -20 c143 -6 170 -9 184 -25 9 -10 13 -23 9 -28 -7 -13 -495 -16 -495 -3 1 33 77 76 120 66 8 -1 90 -6 182 -10z m-436 -70 c-3 -9 -6 -21 -6 -28 0 -7 -21 -27 -46 -45 -25 -18 -53 -41 -62 -50 -9 -9 -37 -32 -62 -51 -25 -19 -56 -44 -70 -57 -29 -25 -112 -92 -176 -141 l-44 -34 -11 29 c-6 17 -7 37 -2 50 11 30 402 323 430 323 12 0 25 5 28 10 10 16 28 11 21 -6z m-170 -1 c23 -9 -2 -34 -141 -139 -72 -54 -132 -101 -135 -104 -3 -4 -15 -12 -28 -19 -20 -11 -23 -9 -33 16 -6 15 -15 48 -21 73 -6 25 -17 65 -24 89 -8 25 -14 55 -14 68 l0 24 191 -1 c105 -1 197 -4 205 -7z m806 -29 c10 -3 22 -20 27 -37 9 -31 16 -49 61 -167 11 -30 34 -91 50 -135 51 -142 79 -219 100 -275 12 -30 25 -66 30 -80 5 -14 18 -50 30 -80 12 -30 25 -66 30 -80 5 -14 18 -50 30 -80 52 -135 53 -140 40 -200 -7 -30 -16 -66 -21 -80 -5 -14 -13 -45 -19 -70 -17 -77 -36 -154 -43 -170 -4 -8 -11 -35 -17 -60 -5 -25 -17 -74 -26 -110 -9 -36 -22 -90 -29 -122 -7 -31 -16 -61 -19 -66 -4 -6 -11 -30 -16 -54 -5 -24 -16 -70 -25 -103 -8 -33 -21 -88 -29 -122 -7 -34 -17 -66 -20 -71 -4 -6 -11 -30 -16 -54 -5 -24 -17 -72 -26 -108 -9 -36 -22 -90 -29 -122 -7 -31 -16 -61 -19 -66 -4 -6 -11 -30 -16 -54 -14 -66 -37 -155 -60 -243 -12 -44 -26 -96 -31 -115 -13 -52 -53 -215 -86 -345 -8 -33 -20 -82 -27 -110 -7 -27 -16 -57 -19 -65 -4 -8 -11 -35 -16 -60 -34 -158 -61 -246 -76 -243 -9 2 -22 46 -44 158 -5 22 -14 63 -21 90 -7 28 -18 73 -25 100 -7 28 -18 70 -25 95 -6 25 -15 63 -19 85 -10 46 -27 118 -46 190 -23 88 -63 257 -74 310 -4 22 -12 56 -18 75 -6 19 -17 58 -23 85 -7 28 -19 77 -26 110 -8 33 -18 78 -23 100 -4 22 -12 56 -18 75 -16 49 -34 127 -44 182 -4 26 -12 56 -18 67 -6 11 -11 30 -11 42 0 12 -6 45 -14 73 -8 28 -21 78 -29 111 -8 33 -20 80 -27 105 -6 25 -15 63 -19 85 -9 43 -25 111 -46 190 -19 72 -36 144 -46 190 -4 22 -13 60 -19 85 -7 25 -18 70 -25 100 -8 30 -19 75 -26 100 -15 56 -37 153 -48 205 -4 22 -13 60 -20 85 -34 126 -40 148 -45 190 -8 54 -4 60 84 126 36 26 70 53 75 59 6 7 30 27 55 45 25 18 50 38 55 45 6 6 39 33 75 59 36 27 70 54 75 60 6 7 33 29 60 50 l50 38 270 -7 c149 -4 278 -9 287 -11z"/> <path d="M10088 14511 c-66 -11 -138 -97 -138 -166 0 -52 36 -121 85 -161 41 -33 51 -37 108 -37 97 -1 152 40 175 133 19 76 -13 164 -76 208 -30 21 -99 31 -154 23z m124 -49 c51 -33 71 -69 71 -126 0 -91 -60 -156 -142 -156 -71 0 -151 82 -151 155 0 38 43 107 80 126 44 24 107 24 142 1z"/> </g> </svg> 